<svg xmlns="http://www.w3.org/2000/svg" width="111.413" height="74.306" viewBox="0 0 111.413 74.306">
  <path id="Icon_ionic-ios-arrow-round-back" data-name="Icon ionic-ios-arrow-round-back" d="M78.932,12.674a5.057,5.057,0,0,0-.039,7.121l23.49,23.567H12.874a5.031,5.031,0,0,0,0,10.062h89.51L78.855,76.991a5.093,5.093,0,0,0,.039,7.121,5.01,5.01,0,0,0,7.082-.039l31.888-32.12h0a5.649,5.649,0,0,0,1.045-1.587,4.8,4.8,0,0,0,.387-1.935,5.044,5.044,0,0,0-1.432-3.522L85.976,12.791A4.93,4.93,0,0,0,78.932,12.674Z" transform="translate(-7.882 -11.252)" fill="#0a2530"/>
</svg>
