<svg xmlns="http://www.w3.org/2000/svg" width="98" height="101" viewBox="0 0 98 101">
  <g id="Group_30" data-name="Group 30" transform="translate(-3699 -1327)">
    <g id="Path_29" data-name="Path 29" transform="translate(3699 1327)" fill="none">
      <path d="M49,0C76.062,0,98,22.61,98,50.5S76.062,101,49,101,0,78.39,0,50.5,21.938,0,49,0Z" stroke="none"/>
      <path d="M 49 3 C 42.8000602722168 3 36.78630828857422 4.251121520996094 31.12578582763672 6.718612670898438 C 25.65074157714844 9.105247497558594 20.73153686523438 12.52410888671875 16.50481414794922 16.88021850585938 C 12.27198791503906 21.24263000488281 8.948280334472656 26.32364654541016 6.626029968261719 31.98213958740234 C 4.219970703125 37.84482955932617 3 44.07513809204102 3 50.5 C 3 56.92486190795898 4.219970703125 63.15517044067383 6.626029968261719 69.01786041259766 C 8.948280334472656 74.67635345458984 12.27198791503906 79.75736999511719 16.50481414794922 84.11978149414063 C 20.73153686523438 88.47589111328125 25.65074157714844 91.89475250244141 31.12578582763672 94.28138732910156 C 36.78630828857422 96.74887847900391 42.8000602722168 98 49 98 C 55.1999397277832 98 61.21369171142578 96.74887847900391 66.87421417236328 94.28138732910156 C 72.34925842285156 91.89475250244141 77.26846313476563 88.47589111328125 81.49518585205078 84.11978149414063 C 85.72801208496094 79.75736999511719 89.05172729492188 74.67635345458984 91.37397003173828 69.01786041259766 C 93.780029296875 63.15517044067383 95 56.92486190795898 95 50.5 C 95 44.07513809204102 93.780029296875 37.84482955932617 91.37397003173828 31.98213958740234 C 89.05172729492188 26.32364654541016 85.72801208496094 21.24263000488281 81.49518585205078 16.88021850585938 C 77.26846313476563 12.52410888671875 72.34925842285156 9.105247497558594 66.87421417236328 6.718612670898438 C 61.21369171142578 4.251121520996094 55.1999397277832 3 49 3 M 49 0 C 76.06195068359375 0 98 22.609619140625 98 50.5 C 98 78.390380859375 76.06195068359375 101 49 101 C 21.93804931640625 101 0 78.390380859375 0 50.5 C 0 22.609619140625 21.93804931640625 0 49 0 Z" stroke="none" fill="#707070"/>
    </g>
    <path id="Path_22" data-name="Path 22" d="M16.626,32.313A2.313,2.313,0,1,1,14.313,30,2.313,2.313,0,0,1,16.626,32.313Z" transform="translate(3723.353 1366.367)" fill="none" stroke="#616161" stroke-linecap="round" stroke-linejoin="round" stroke-width="3"/>
    <path id="Path_23" data-name="Path 23" d="M33.126,32.313A2.313,2.313,0,1,1,30.813,30,2.313,2.313,0,0,1,33.126,32.313Z" transform="translate(3732.296 1366.367)" fill="none" stroke="#616161" stroke-linecap="round" stroke-linejoin="round" stroke-width="3"/>
    <path id="Path_24" data-name="Path 24" d="M1.5,1.5h9.252l6.2,30.97a4.626,4.626,0,0,0,4.626,3.724H44.058a4.626,4.626,0,0,0,4.626-3.724l3.7-19.406H13.065" transform="translate(3717.663 1350.921)" fill="none" stroke="#616161" stroke-linecap="round" stroke-linejoin="round" stroke-width="3"/>
  </g>
</svg>
