<svg xmlns="http://www.w3.org/2000/svg" width="101" height="101" viewBox="0 0 101 101">
  <g id="Group_31" data-name="Group 31" transform="translate(-3918 -1327)">
    <g id="Ellipse_62" data-name="Ellipse 62" transform="translate(3918 1327)" fill="none" stroke="#707070" stroke-width="3">
      <circle cx="50.5" cy="50.5" r="50.5" stroke="none"/>
      <circle cx="50.5" cy="50.5" r="49" fill="none"/>
    </g>
    <g id="聯絡我們_icon" data-name="聯絡我們 icon" transform="translate(3940.271 1347.767)">
      <g id="Group_8" data-name="Group 8">
        <g id="_x32__26_">
          <g id="Group_7" data-name="Group 7">
            <path id="Path_4" data-name="Path 4" d="M36.683,29.7H19.215a1.747,1.747,0,0,0,0,3.494H36.683a1.747,1.747,0,1,0,0-3.494Zm3.494-10.481H15.721a1.747,1.747,0,1,0,0,3.494H40.177a1.747,1.747,0,0,0,0-3.494ZM27.949,0C12.514,0,0,10.949,0,24.456c0,7.719,4.1,14.591,10.481,19.074V55.9l12.243-7.429a32.051,32.051,0,0,0,5.225.442c15.437,0,27.949-10.949,27.949-24.456S43.386,0,27.949,0Zm0,45.417a28.268,28.268,0,0,1-5.9-.641L13.821,49.72l.11-8.1c-6.3-3.792-10.437-10.06-10.437-17.163,0-11.576,10.949-20.962,24.456-20.962S52.4,12.879,52.4,24.456,41.456,45.417,27.949,45.417Z" fill="none"/>
          </g>
        </g>
      </g>
    </g>
    <path id="Icon_awesome-comment-dots" data-name="Icon awesome-comment-dots" d="M29.466,2.25C13.191,2.25,0,12.966,0,26.191A21.25,21.25,0,0,0,6.561,41.235C5.122,47.036.311,52.2.253,52.262a.915.915,0,0,0-.173,1,.9.9,0,0,0,.84.552A26.323,26.323,0,0,0,17.1,47.9a35.1,35.1,0,0,0,12.362,2.233c16.275,0,29.466-10.716,29.466-23.941S45.742,2.25,29.466,2.25ZM14.733,29.875a3.683,3.683,0,1,1,3.683-3.683A3.679,3.679,0,0,1,14.733,29.875Zm14.733,0a3.683,3.683,0,1,1,3.683-3.683A3.679,3.679,0,0,1,29.466,29.875Zm14.733,0a3.683,3.683,0,1,1,3.683-3.683A3.679,3.679,0,0,1,44.2,29.875Z" transform="translate(3941.435 1349.008)" fill="none" stroke="#616161" stroke-width="3"/>
  </g>
</svg>
